# xmcd
#
# Track frame offsets: 
#        150
#        17615
#        40395
#        51877
#        64660
#        84110
#        105752
#        134197
#        153832
#        181172
#        204457
#
# Disc length: 3069 seconds
#
# Revision: 0
# Processed by: cddbd v1.5.2PL0 Copyright (c) Steve Scherf et al.
# Submitted via: ExactAudioCopy v0.99pb3
#
DISCID=840bfb0b
DTITLE=Toxic Blues - Whispers of Time
DYEAR=1999
DGENRE=Blues
TTITLE0=Big Time
TTITLE1=Alone in the Dark
TTITLE2=You gotta move
TTITLE3=Rollin' and tumblin'
TTITLE4=Memphis Train
TTITLE5=Two Times
TTITLE6=Walking spanish
TTITLE7=Crazy for my Baby
TTITLE8=Blues with a feelin'
TTITLE9=Love me so tight
TTITLE10=Clap hands
EXTD=
EXTT0=
EXTT1=
EXTT2=
EXTT3=
EXTT4=
EXTT5=
EXTT6=
EXTT7=
EXTT8=
EXTT9=
EXTT10=
PLAYORDER=
